# xmcd CD database file
#
# Track frame offsets:
#	150
#	21282
#	41469
#	55438
#	71723
#	85269
#	106976
#	126383
#	139999
#	148759
#	168933
#	173403
#
# Disc length: 2508 seconds
#
# Revision: 0
# Processed by: cddbd v1.5.2PL0 Copyright (c) Steve Scherf et al.
# Submitted via: CDex 1.70beta2
#
DISCID=ab09ca0c
DTITLE=BOOM BOOM SATELLITES - EXPOSED
DYEAR=2007
DGENRE=Big Beat
TTITLE0=UPSIDE DOWN
TTITLE1=WHAT GOES ROUND COMES AROUND
TTITLE2=MORNING AFTER
TTITLE3=SHUT UP AND EXPLODE
TTITLE4=BRING IT ON DOWN
TTITLE5=INTERGALACTIC
TTITLE6=SIX FORTY FIVE
TTITLE7=FIENDS
TTITLE8=ENTERING ORBIT
TTITLE9=EASY ACTION
TTITLE10=CLUSTER
TTITLE11=GET BACK IN MY HOUSE
EXTD=YEAR: 2007
EXTT0=
EXTT1=
EXTT2=
EXTT3=
EXTT4=
EXTT5=
EXTT6=
EXTT7=
EXTT8=
EXTT9=
EXTT10=
EXTT11=
PLAYORDER=
